HIERARCHY
ROOT Root
{
  OFFSET 0.0 0.0 0.0
  CHANNELS 6 Xposition Yposition Zposition Zrotation Yrotation Xrotation
  JOINT Hips
  {
    OFFSET 0.0 100.0 0.0
    CHANNELS 6 Xposition Yposition Zposition Zrotation Yrotation Xrotation
    JOINT Spine1
    {
      OFFSET 5.003913 -0.037094 -0.013727
      CHANNELS 3 Zrotation Yrotation Xrotation
      JOINT Spine2
      {
        OFFSET 7.125363 -1e-06 0.0
        CHANNELS 3 Zrotation Yrotation Xrotation
        JOINT Chest
        {
          OFFSET 7.594027 1e-06 0.0
          CHANNELS 3 Zrotation Yrotation Xrotation
          JOINT Neck1
          {
            OFFSET 26.313086 -0.460272 -0.181672
            CHANNELS 3 Zrotation Yrotation Xrotation
            JOINT Neck2
            {
              OFFSET 8.045911 0.0 0.0
              CHANNELS 3 Zrotation Yrotation Xrotation
              JOINT Head
              {
                OFFSET 6.432774 0.0 0.0
                CHANNELS 3 Zrotation Yrotation Xrotation
                JOINT HeadEnd
                {
                  OFFSET 16.169773 0.06451 0.00362
                  CHANNELS 3 Zrotation Yrotation Xrotation
                }
                JOINT Jaw
                {
                  OFFSET 0.108741 3.12938 0.002639
                  CHANNELS 3 Zrotation Yrotation Xrotation
                }
                JOINT LeftEye
                {
                  OFFSET 4.45173 8.166359 3.206392
                  CHANNELS 3 Zrotation Yrotation Xrotation
                }
                JOINT RightEye
                {
                  OFFSET 4.436895 8.135758 -3.222429
                  CHANNELS 3 Zrotation Yrotation Xrotation
                }
              }
            }
          }
          JOINT LeftShoulder
          {
            OFFSET 23.218927 5.195579 1.621656
            CHANNELS 3 Zrotation Yrotation Xrotation
            JOINT LeftArm
            {
              OFFSET 15.902118 2e-06 -2e-06
              CHANNELS 3 Zrotation Yrotation Xrotation
              JOINT LeftForeArm
              {
                OFFSET 28.739307 0.0 -1e-06
                CHANNELS 3 Zrotation Yrotation Xrotation
                JOINT LeftHand
                {
                  OFFSET 27.093981 -4e-06 0.0
                  CHANNELS 3 Zrotation Yrotation Xrotation
                  JOINT LeftHandThumb1
                  {
                    OFFSET 2.276781 3.380274 0.83384
                    CHANNELS 3 Zrotation Yrotation Xrotation
                    JOINT LeftHandThumb2
                    {
                      OFFSET 4.705309 -1e-06 -1e-06
                      CHANNELS 3 Zrotation Yrotation Xrotation
                      JOINT LeftHandThumb3
                      {
                        OFFSET 2.798515 0.0 3e-06
                        CHANNELS 3 Zrotation Yrotation Xrotation
                        JOINT LeftHandThumbEnd
                        {
                          OFFSET 3.180793 4e-06 -4e-06
                          CHANNELS 3 Zrotation Yrotation Xrotation
                        }
                      }
                    }
                  }
                  JOINT LeftHandIndex1
                  {
                    OFFSET 3.247786 2.352677 0.137192
                    CHANNELS 3 Zrotation Yrotation Xrotation
                    JOINT LeftHandIndex2
                    {
                      OFFSET 6.367095 1e-06 0.0
                      CHANNELS 3 Zrotation Yrotation Xrotation
                      JOINT LeftHandIndex3
                      {
                        OFFSET 3.662364 0.0 0.0
                        CHANNELS 3 Zrotation Yrotation Xrotation
                        JOINT LeftHandIndex4
                        {
                          OFFSET 2.329242 4e-06 -4e-06
                          CHANNELS 3 Zrotation Yrotation Xrotation
                          JOINT LeftHandIndexEnd
                          {
                            OFFSET 2.767823 1e-06 0.0
                            CHANNELS 3 Zrotation Yrotation Xrotation
                          }
                        }
                      }
                    }
                  }
                  JOINT LeftHandMiddle1
                  {
                    OFFSET 3.163612 0.945023 -0.406112
                    CHANNELS 3 Zrotation Yrotation Xrotation
                    JOINT LeftHandMiddle2
                    {
                      OFFSET 6.276789 3e-06 0.0
                      CHANNELS 3 Zrotation Yrotation Xrotation
                      JOINT LeftHandMiddle3
                      {
                        OFFSET 4.35652 -1e-06 4e-06
                        CHANNELS 3 Zrotation Yrotation Xrotation
                        JOINT LeftHandMiddle4
                        {
                          OFFSET 2.996877 0.0 8e-06
                          CHANNELS 3 Zrotation Yrotation Xrotation
                          JOINT LeftHandMiddleEnd
                          {
                            OFFSET 2.323256 3e-06 -4e-06
                            CHANNELS 3 Zrotation Yrotation Xrotation
                          }
                        }
                      }
                    }
                  }
                  JOINT LeftHandRing1
                  {
                    OFFSET 2.882606 -0.309162 0.107445
                    CHANNELS 3 Zrotation Yrotation Xrotation
                    JOINT LeftHandRing2
                    {
                      OFFSET 6.033198 0.0 4e-06
                      CHANNELS 3 Zrotation Yrotation Xrotation
                      JOINT LeftHandRing3
                      {
                        OFFSET 4.350578 3e-06 0.0
                        CHANNELS 3 Zrotation Yrotation Xrotation
                        JOINT LeftHandRing4
                        {
                          OFFSET 2.651321 2e-06 -7e-06
                          CHANNELS 3 Zrotation Yrotation Xrotation
                          JOINT LeftHandRingEnd
                          {
                            OFFSET 1.937663 1e-06 -4e-06
                            CHANNELS 3 Zrotation Yrotation Xrotation
                          }
                        }
                      }
                    }
                  }
                  JOINT LeftHandPinky1
                  {
                    OFFSET 2.865315 -1.525436 0.575687
                    CHANNELS 3 Zrotation Yrotation Xrotation
                    JOINT LeftHandPinky2
                    {
                      OFFSET 5.54936 1e-06 -8e-06
                      CHANNELS 3 Zrotation Yrotation Xrotation
                      JOINT LeftHandPinky3
                      {
                        OFFSET 3.070974 0.0 -4e-06
                        CHANNELS 3 Zrotation Yrotation Xrotation
                        JOINT LeftHandPinky4
                        {
                          OFFSET 1.549672 1e-06 0.0
                          CHANNELS 3 Zrotation Yrotation Xrotation
                          JOINT LeftHandPinkyEnd
                          {
                            OFFSET 1.952123 0.0 0.0
                            CHANNELS 3 Zrotation Yrotation Xrotation
                          }
                        }
                      }
                    }
                  }
                }
              }
            }
          }
          JOINT RightShoulder
          {
            OFFSET 23.161716 5.296122 -1.380114
            CHANNELS 3 Zrotation Yrotation Xrotation
            JOINT RightArm
            {
              OFFSET -16.027195 -2e-06 1.1e-05
              CHANNELS 3 Zrotation Yrotation Xrotation
              JOINT RightForeArm
              {
                OFFSET -28.736639 4e-06 2e-06
                CHANNELS 3 Zrotation Yrotation Xrotation
                JOINT RightHand
                {
                  OFFSET -27.133619 6e-06 0.0
                  CHANNELS 3 Zrotation Yrotation Xrotation
                  JOINT RightHandThumb1
                  {
                    OFFSET -2.274328 -3.351035 -0.83067
                    CHANNELS 3 Zrotation Yrotation Xrotation
                    JOINT RightHandThumb2
                    {
                      OFFSET -4.703594 -3e-06 2e-06
                      CHANNELS 3 Zrotation Yrotation Xrotation
                      JOINT RightHandThumb3
                      {
                        OFFSET -2.794935 -4e-06 -3e-06
                        CHANNELS 3 Zrotation Yrotation Xrotation
                        JOINT RightHandThumbEnd
                        {
                          OFFSET -3.183852 4e-06 1e-06
                          CHANNELS 3 Zrotation Yrotation Xrotation
                        }
                      }
                    }
                  }
                  JOINT RightHandIndex1
                  {
                    OFFSET -3.253496 -2.33755 -0.127667
                    CHANNELS 3 Zrotation Yrotation Xrotation
                    JOINT RightHandIndex2
                    {
                      OFFSET -6.344434 0.0 0.0
                      CHANNELS 3 Zrotation Yrotation Xrotation
                      JOINT RightHandIndex3
                      {
                        OFFSET -3.654871 0.0 -8e-06
                        CHANNELS 3 Zrotation Yrotation Xrotation
                        JOINT RightHandIndex4
                        {
                          OFFSET -2.327586 -1e-06 0.0
                          CHANNELS 3 Zrotation Yrotation Xrotation
                          JOINT RightHandIndexEnd
                          {
                            OFFSET -2.770001 3e-06 8e-06
                            CHANNELS 3 Zrotation Yrotation Xrotation
                          }
                        }
                      }
                    }
                  }
                  JOINT RightHandMiddle1
                  {
                    OFFSET -3.168223 -0.944764 0.411762
                    CHANNELS 3 Zrotation Yrotation Xrotation
                    JOINT RightHandMiddle2
                    {
                      OFFSET -6.266691 -1e-06 -4e-06
                      CHANNELS 3 Zrotation Yrotation Xrotation
                      JOINT RightHandMiddle3
                      {
                        OFFSET -4.348901 0.0 0.0
                        CHANNELS 3 Zrotation Yrotation Xrotation
                        JOINT RightHandMiddle4
                        {
                          OFFSET -3.00024 2e-06 -4e-06
                          CHANNELS 3 Zrotation Yrotation Xrotation
                          JOINT RightHandMiddleEnd
                          {
                            OFFSET -2.321477 -4e-06 -4e-06
                            CHANNELS 3 Zrotation Yrotation Xrotation
                          }
                        }
                      }
                    }
                  }
                  JOINT RightHandRing1
                  {
                    OFFSET -2.885654 0.293261 -0.119232
                    CHANNELS 3 Zrotation Yrotation Xrotation
                    JOINT RightHandRing2
                    {
                      OFFSET -6.032835 -1e-06 -4e-06
                      CHANNELS 3 Zrotation Yrotation Xrotation
                      JOINT RightHandRing3
                      {
                        OFFSET -4.33881 0.0 -4e-06
                        CHANNELS 3 Zrotation Yrotation Xrotation
                        JOINT RightHandRing4
                        {
                          OFFSET -2.654903 -4e-06 -4e-06
                          CHANNELS 3 Zrotation Yrotation Xrotation
                          JOINT RightHandRingEnd
                          {
                            OFFSET -1.935122 0.0 4e-06
                            CHANNELS 3 Zrotation Yrotation Xrotation
                          }
                        }
                      }
                    }
                  }
                  JOINT RightHandPinky1
                  {
                    OFFSET -2.866241 1.503904 -0.60527
                    CHANNELS 3 Zrotation Yrotation Xrotation
                    JOINT RightHandPinky2
                    {
                      OFFSET -5.553177 -2e-06 0.0
                      CHANNELS 3 Zrotation Yrotation Xrotation
                      JOINT RightHandPinky3
                      {
                        OFFSET -3.062664 -1e-06 -4e-06
                        CHANNELS 3 Zrotation Yrotation Xrotation
                        JOINT RightHandPinky4
                        {
                          OFFSET -1.546529 2e-06 4e-06
                          CHANNELS 3 Zrotation Yrotation Xrotation
                          JOINT RightHandPinkyEnd
                          {
                            OFFSET -1.952341 0.0 -4e-06
                            CHANNELS 3 Zrotation Yrotation Xrotation
                          }
                        }
                      }
                    }
                  }
                }
              }
            }
          }
        }
      }
    }
    JOINT LeftLeg
    {
      OFFSET -8.443107 2.567604 10.043214
      CHANNELS 3 Zrotation Yrotation Xrotation
      JOINT LeftShin
      {
        OFFSET 43.229198 1e-06 -1e-06
        CHANNELS 3 Zrotation Yrotation Xrotation
        JOINT LeftFoot
        {
          OFFSET 42.298611 1e-06 1e-06
          CHANNELS 3 Zrotation Yrotation Xrotation
          JOINT LeftToeBase
          {
            OFFSET 14.165858 1e-06 0.0
            CHANNELS 3 Zrotation Yrotation Xrotation
            JOINT LeftToeEnd
            {
              OFFSET 6.7141 -0.234461 0.0
              CHANNELS 3 Zrotation Yrotation Xrotation
            }
          }
        }
      }
    }
    JOINT RightLeg
    {
      OFFSET -8.303923 2.592729 -10.047278
      CHANNELS 3 Zrotation Yrotation Xrotation
      JOINT RightShin
      {
        OFFSET -43.369682 0.0 1e-06
        CHANNELS 3 Zrotation Yrotation Xrotation
        JOINT RightFoot
        {
          OFFSET -42.260784 4e-06 2e-06
          CHANNELS 3 Zrotation Yrotation Xrotation
          JOINT RightToeBase
          {
            OFFSET -14.222245 -2e-06 -1e-06
            CHANNELS 3 Zrotation Yrotation Xrotation
            JOINT RightToeEnd
            {
              OFFSET -6.660062 0.232574 -2e-06
              CHANNELS 3 Zrotation Yrotation Xrotation
            }
          }
        }
      }
    }
  }
}
MOTION
Frames: 4
Frame Time: 0.03333333333333333
0.0 0.0 0.0 0.0 -0.0 0.0 -0.937836 99.826553 -1.244945 89.234238 -2.593636 90.291611 -4.486318 -0.518116 -0.121816 -12.59434 -0.575877 0.114553 17.413347 0.25047 -1.81769 12.281734 3.345658 2.467397 -2.623091 -0.658023 1.717736 -28.682444 1.787736 -0.473575 5e-06 0.0 -0.0 -0.011686 0.021898 0.071533 -0.020365 0.014896 0.057211 -0.032861 0.031952 0.095045 -131.122314 -66.288429 154.015305 40.301361 -48.688835 -0.11795 23.612961 0.373053 0.133637 -2.376097 10.500896 11.231327 17.636625 -26.322733 52.411205 -19.46666 -14.395597 29.410389 -0.0 -8.774821 -2e-06 16.257376 -18.043539 5.849597 -0.609777 -1.795655 -3.88933 -4.80709 -11.046807 -2.937851 3e-06 -20.976013 -1e-06 -5.01997 -25.033552 -4.031883 6e-06 3e-06 -0.0 -10.634535 -5.68697 -3.56559 10.573272 -17.922949 -3.113901 2e-06 -13.821206 1e-06 -0.501777 -31.181498 -4.027019 -11.105204 -59.504616 6.613712 -13.982714 -7.150198 -2.875043 13.772729 -8.401491 -3.218242 0.347732 -34.211555 0.771656 -0.963028 -17.733372 2.621019 -0.0 0.0 1e-06 -17.346416 -20.095217 -4.201782 21.757557 -1.638374 3.866427 2e-06 -6.338822 -1e-06 -1.69759 -22.591742 -6.194006 1e-06 -5e-06 -1e-06 43.551826 -71.080276 159.144043 42.784573 -57.784256 -24.6733 30.689096 0.426704 0.322915 1.6577 3.639205 -3.059289 22.182112 -20.375893 49.933311 -16.701817 -16.74353 28.476532 -3e-06 -12.690601 -0.0 16.198042 -18.12578 2.862209 -0.105918 -1.513856 -4.275881 -5.039041 -5.612873 -2.953557 4e-06 -11.020524 -2e-06 -6.1113 -15.895334 -3.84047 0.0 -1e-06 -0.0 -10.283373 -5.680289 -4.341838 11.028296 -11.302406 -2.372634 -1.384269 -14.238583 -6.320121 -0.625437 -26.924198 -3.827605 -4.513651 -50.270271 -3.544538 -13.708523 -7.363476 -3.720939 18.14115 -14.052739 -3.242676 7e-06 -18.78727 -4e-06 -0.429713 -8.456043 2.555503 1e-06 -0.0 0.0 -15.923536 -20.094484 -5.473584 30.41921 -7.190825 1.735924 -0.0 -8.162927 -1e-06 -1.861902 -22.861471 -6.167944 2e-06 -4e-06 -3e-06 178.709534 -7.544344 -3.648484 9.920446 -0.019244 0.061477 -80.783104 5.83817 -6.951175 -5.439459 1.525631 2.137896 -0.999999 0.0 -0.0 -0.818678 -3.174778 -2.871794 10.138356 -0.014518 0.09201 -80.91143 -1.935017 -7.135215 -5.269895 0.704322 1.698668 -1.000003 0.0 -0.0 
0.0 0.0 0.0 0.0 -0.0 0.0 -0.958434 99.848198 -1.218697 89.230499 -2.693106 90.298103 -4.515265 -0.513375 -0.140684 -12.593315 -0.560344 0.147632 17.376701 0.241899 -1.841366 11.891851 3.376739 2.462986 -2.603775 -0.653318 1.697754 -28.967867 1.674696 -0.498493 7e-06 0.0 -0.0 -0.010384 0.023704 0.09137 0.006098 0.018135 0.080234 -0.001716 0.032042 0.111233 -131.292984 -66.113945 154.267334 40.252987 -48.614769 -1.339734 24.175438 0.361674 0.0789 -2.105306 11.060573 11.508328 17.636627 -26.322737 52.411198 -19.46666 -14.395598 29.410385 -0.0 -8.774821 -1e-06 16.219484 -17.99922 5.8472 -0.609777 -1.795653 -3.88933 -4.807088 -11.046808 -2.937851 3e-06 -20.976015 2e-06 -5.01997 -25.033556 -4.031881 5e-06 2e-06 -1e-06 -10.634535 -5.686971 -3.565588 10.573274 -17.922947 -3.1139 2e-06 -13.821208 2e-06 -0.501777 -31.181501 -4.027016 -11.059422 -59.440796 6.621919 -13.982713 -7.150197 -2.875045 13.772727 -8.401493 -3.218243 0.34773 -34.211552 0.771658 -0.963032 -17.733368 2.621022 -0.0 0.0 1e-06 -17.346416 -20.095217 -4.201785 21.757557 -1.638374 3.866428 1e-06 -6.338824 1e-06 -1.697589 -22.591743 -6.194005 0.0 -5e-06 -1e-06 43.187695 -70.809258 159.68425 42.289082 -57.703003 -24.844112 31.138931 0.456646 0.325472 1.581858 3.691033 -3.130517 22.182108 -20.375887 49.933315 -16.701815 -16.743526 28.476534 -3e-06 -12.6906 -0.0 16.202522 -18.139957 2.85582 -0.105921 -1.513856 -4.275881 -5.039038 -5.612873 -2.953557 4e-06 -11.020525 -3e-06 -6.111298 -15.895338 -3.840472 1e-06 1e-06 0.0 -10.283367 -5.680288 -4.341838 11.028292 -11.302406 -2.372633 -1.384269 -14.238582 -6.320122 -0.625439 -26.924194 -3.827603 -4.526962 -50.354931 -3.517179 -13.708523 -7.363478 -3.72094 18.141148 -14.052741 -3.242675 7e-06 -18.78727 -4e-06 -0.42971 -8.456046 2.555502 1e-06 1e-06 1e-06 -15.923532 -20.094482 -5.473585 30.419207 -7.190826 1.735925 2e-06 -8.162925 -2e-06 -1.8619 -22.861473 -6.167943 2e-06 -1e-06 -1e-06 178.800278 -7.54784 -3.71611 9.527848 -0.012457 0.094326 -80.612701 5.889816 -7.030062 -5.473876 1.544031 2.141932 -1.0 0.0 0.0 -0.748871 -3.122522 -2.827212 9.797584 -0.022344 0.104817 -80.771545 -1.993152 -7.100931 -5.289504 0.705593 1.703851 -1.000002 -0.0 0.0 
0.0 0.0 0.0 0.0 -0.0 0.0 -0.991804 99.854019 -1.192771 89.229523 -2.821168 90.292244 -4.551369 -0.501938 -0.150762 -12.611628 -0.548912 0.157878 17.360428 0.230612 -1.845276 11.34086 3.358501 2.489552 -2.626165 -0.653968 1.555023 -29.236025 1.521131 -0.607021 6e-06 -0.0 0.0 -0.013002 0.022845 0.09176 0.009147 0.01656 0.082993 0.005667 0.031385 0.108273 -131.401459 -65.898407 154.409836 40.019451 -48.54808 -2.885878 25.097872 0.344755 0.019769 -1.880449 11.789963 11.610023 17.636625 -26.322735 52.411194 -19.46666 -14.395598 29.410389 -1e-06 -8.774821 -0.0 16.19804 -17.990519 5.825474 -0.609776 -1.795654 -3.889328 -4.807088 -11.046809 -2.937852 5e-06 -20.976015 1e-06 -5.019969 -25.033556 -4.031879 5e-06 0.0 0.0 -10.634535 -5.686971 -3.565587 10.573274 -17.922951 -3.113901 3e-06 -13.821209 2e-06 -0.501776 -31.181505 -4.027013 -11.025364 -59.334003 6.559506 -13.982712 -7.150198 -2.875044 13.772727 -8.40149 -3.218243 0.347734 -34.211552 0.771657 -0.963028 -17.733366 2.621022 -2e-06 1e-06 -1e-06 -17.346416 -20.095217 -4.201781 21.757557 -1.638376 3.866425 2e-06 -6.338823 1e-06 -1.697591 -22.591743 -6.194005 2e-06 -6e-06 -1e-06 42.788067 -70.539307 160.225967 41.572937 -57.682751 -25.073923 31.794678 0.470916 0.321122 1.441364 3.901005 -3.250286 22.182114 -20.375902 49.933323 -16.701809 -16.74353 28.47653 -3e-06 -12.690601 -1e-06 16.190567 -18.143368 2.870945 -0.105921 -1.513856 -4.275882 -5.039042 -5.612873 -2.953557 5e-06 -11.020525 -2e-06 -6.111297 -15.895334 -3.84047 -0.0 -0.0 0.0 -10.283371 -5.680288 -4.341838 11.028295 -11.302404 -2.372632 -1.384269 -14.238579 -6.32012 -0.625441 -26.924185 -3.8276 -4.543432 -50.399929 -3.509498 -13.708527 -7.363475 -3.720939 18.141146 -14.052739 -3.242673 7e-06 -18.78727 0.0 -0.429712 -8.456044 2.555504 1e-06 -0.0 3e-06 -15.923536 -20.094482 -5.473585 30.41921 -7.190826 1.735926 2e-06 -8.162926 0.0 -1.861904 -22.861469 -6.167937 2e-06 -3e-06 -2e-06 178.727951 -7.571458 -3.782172 9.42044 -0.013576 0.12003 -80.569221 5.951189 -7.075519 -5.452026 1.544538 2.142562 -0.999999 -0.0 -0.0 -0.875184 -3.096858 -2.785279 9.806938 -0.022901 0.110507 -80.780907 -2.0456 -7.085739 -5.245092 0.718072 1.708876 -1.000002 -0.0 0.0 
0.0 0.0 0.0 0.0 -0.0 0.0 -1.035296 99.853096 -1.161951 89.234688 -2.955646 90.287338 -4.575868 -0.497195 -0.15707 -12.627473 -0.534527 0.154735 17.324387 0.215459 -1.819265 10.68797 3.292674 2.5033 -2.660304 -0.652486 1.358749 -29.538242 1.3591 -0.784901 6e-06 -0.0 -0.0 -0.019452 0.020968 0.08299 0.0059 0.014239 0.075486 0.005641 0.029511 0.097161 -131.519287 -65.677826 154.528549 39.621605 -48.473053 -4.593551 26.329636 0.375124 -0.027941 -1.690396 12.634438 11.491835 17.636625 -26.322729 52.411205 -19.46666 -14.395596 29.410389 -0.0 -8.77482 1e-06 16.16457 -17.977966 5.789443 -0.609778 -1.795655 -3.889327 -4.807088 -11.046811 -2.937852 5e-06 -20.976015 -1e-06 -5.01997 -25.033556 -4.031882 8e-06 0.0 -1e-06 -10.634535 -5.68697 -3.565588 10.573275 -17.922947 -3.113901 3e-06 -13.821205 2e-06 -0.501775 -31.181498 -4.027017 -10.927474 -59.165867 6.411192 -13.982716 -7.150197 -2.875043 13.772731 -8.401492 -3.218241 0.347735 -34.211544 0.771655 -0.963031 -17.733364 2.621021 -1e-06 -1e-06 1e-06 -17.346418 -20.095213 -4.201784 21.757557 -1.638375 3.866426 1e-06 -6.338822 -1e-06 -1.697589 -22.59174 -6.194005 1e-06 -6e-06 -2e-06 42.435314 -70.257431 160.679581 40.657707 -57.723351 -25.322536 32.638252 0.49613 0.338816 1.196514 4.126861 -3.336131 22.182112 -20.375898 49.933323 -16.701807 -16.743528 28.47653 -3e-06 -12.690598 -0.0 16.172132 -18.130451 2.883559 -0.10592 -1.513855 -4.275881 -5.03904 -5.61287 -2.953556 4e-06 -11.02052 -1e-06 -6.1113 -15.895329 -3.84047 0.0 0.0 0.0 -10.283369 -5.680288 -4.341838 11.028294 -11.302404 -2.372632 -1.384268 -14.238579 -6.32012 -0.625436 -26.924191 -3.8276 -4.568223 -50.391327 -3.499994 -13.708523 -7.363474 -3.720939 18.141146 -14.052736 -3.242673 5e-06 -18.78727 -1e-06 -0.42971 -8.456041 2.555505 0.0 0.0 0.0 -15.923532 -20.094481 -5.473585 30.419205 -7.190824 1.735926 1e-06 -8.162925 -1e-06 -1.861904 -22.861467 -6.16794 2e-06 -4e-06 -1e-06 178.612289 -7.600836 -3.874149 9.395528 -0.016089 0.136548 -80.561058 6.000253 -7.103117 -5.418256 1.536453 2.140503 -0.999999 -0.0 0.0 -1.075972 -3.088657 -2.760607 9.967394 -0.015817 0.106726 -80.862511 -2.046338 -7.075254 -5.210474 0.731399 1.712335 -1.000002 -0.0 -0.0 
